<svg xmlns="http://www.w3.org/2000/svg" width="1080" height="1920"><path d="M36,2106L-105,2114L483,2117Z" fill="#709963" stroke="#709963" stroke-width="1.51"/><path d="M220,-216L591,-193L636,-198Z" fill="#c3e6ae" stroke="#c3e6ae" stroke-width="1.51"/><path d="M-31,-222L220,-216L1125,-216Z" fill="#cae8b2" stroke="#cae8b2" stroke-width="1.51"/><path d="M220,-216L636,-198L1125,-216Z" fill="#afdba4" stroke="#afdba4" stroke-width="1.51"/><path d="M636,-198L1017,-176L1125,-216Z" fill="#98c490" stroke="#98c490" stroke-width="1.51"/><path d="M856,2073L483,2117L1164,2083Z" fill="#1b723f" stroke="#1b723f" stroke-width="1.51"/><path d="M1239,571L1186,594L1289,785Z" fill="#5f9a5e" stroke="#5f9a5e" stroke-width="1.51"/><path d="M1286,473L1239,571L1289,785Z" fill="#61985e" stroke="#61985e" stroke-width="1.51"/><path d="M1255,1782L1254,1947L1301,2072Z" fill="#005a31" stroke="#005a31" stroke-width="1.51"/><path d="M1166,121L1270,187L1314,-7Z" fill="#81a670" stroke="#81a670" stroke-width="1.51"/><path d="M1153,275L1286,473L1314,237Z" fill="#75a268" stroke="#75a268" stroke-width="1.51"/><path d="M1314,-7L1270,187L1314,237Z" fill="#7da16c" stroke="#7da16c" stroke-width="1.51"/><path d="M1127,1327L1237,1473L1318,1289Z" fill="#1f7c43" stroke="#1f7c43" stroke-width="1.51"/><path d="M1237,1583L1255,1782L1318,1289Z" fill="#136d39" stroke="#136d39" stroke-width="1.51"/><path d="M1237,1473L1237,1583L1318,1289Z" fill="#19733e" stroke="#19733e" stroke-width="1.51"/><path d="M1255,1782L1301,2072L1318,1289Z" fill="#096335" stroke="#096335" stroke-width="1.51"/><path d="M1314,237L1286,473L1320,901Z" fill="#65975f" stroke="#65975f" stroke-width="1.51"/><path d="M1286,473L1289,785L1320,901Z" fill="#57915a" stroke="#57915a" stroke-width="1.51"/><path d="M1320,901L1085,1002L1326,1045Z" fill="#408d53" stroke="#408d53" stroke-width="1.51"/><path d="M1144,1143L1292,1220L1326,1045Z" fill="#31864c" stroke="#31864c" stroke-width="1.51"/><path d="M1292,1220L1318,1289L1326,1045Z" fill="#2b7e48" stroke="#2b7e48" stroke-width="1.51"/><path d="M1125,-216L1314,-7L1343,-129Z" fill="#84a77d" stroke="#84a77d" stroke-width="1.51"/><path d="M1314,-7L1314,237L1343,-129Z" fill="#80a070" stroke="#80a070" stroke-width="1.51"/><path d="M1320,901L1326,1045L1343,-129Z" fill="#5f925c" stroke="#5f925c" stroke-width="1.51"/><path d="M1314,237L1320,901L1343,-129Z" fill="#729a65" stroke="#729a65" stroke-width="1.51"/><path d="M1237,1583L1183,1600L1255,1782Z" fill="#0e6b38" stroke="#0e6b38" stroke-width="1.51"/><path d="M1186,594L1149,790L1289,785Z" fill="#5a9a5d" stroke="#5a9a5d" stroke-width="1.51"/><path d="M1125,-216L1085,-6L1314,-7Z" fill="#88af7e" stroke="#88af7e" stroke-width="1.51"/><path d="M1157,854L1085,1002L1320,901Z" fill="#489557" stroke="#489557" stroke-width="1.51"/><path d="M1289,785L1157,854L1320,901Z" fill="#4d9157" stroke="#4d9157" stroke-width="1.51"/><path d="M1085,1002L1144,1143L1326,1045Z" fill="#3a8f51" stroke="#3a8f51" stroke-width="1.51"/><path d="M1153,275L1116,480L1286,473Z" fill="#73a668" stroke="#73a668" stroke-width="1.51"/><path d="M1292,1220L1127,1327L1318,1289Z" fill="#228045" stroke="#228045" stroke-width="1.51"/><path d="M1085,-6L1166,121L1314,-7Z" fill="#86ad75" stroke="#86ad75" stroke-width="1.51"/><path d="M1270,187L1153,275L1314,237Z" fill="#7ba46b" stroke="#7ba46b" stroke-width="1.51"/><path d="M1133,1805L1254,1947L1255,1782Z" fill="#016335" stroke="#016335" stroke-width="1.51"/><path d="M1254,1947L1164,2083L1301,2072Z" fill="#005630" stroke="#005630" stroke-width="1.51"/><path d="M1149,790L1157,854L1289,785Z" fill="#52985a" stroke="#52985a" stroke-width="1.51"/><path d="M1144,1143L1127,1327L1292,1220Z" fill="#28884a" stroke="#28884a" stroke-width="1.51"/><path d="M1116,480L1239,571L1286,473Z" fill="#6aa064" stroke="#6aa064" stroke-width="1.51"/><path d="M1043,2032L856,2073L1164,2083Z" fill="#0d6536" stroke="#0d6536" stroke-width="1.51"/><path d="M1183,1600L1133,1805L1255,1782Z" fill="#096b38" stroke="#096b38" stroke-width="1.51"/><path d="M1166,121L1153,275L1270,187Z" fill="#7eaa6e" stroke="#7eaa6e" stroke-width="1.51"/><path d="M1183,1600L1237,1583L1237,1473Z" fill="#14713b" stroke="#14713b" stroke-width="1.51"/><path d="M1112,1515L1183,1600L1237,1473Z" fill="#16763e" stroke="#16763e" stroke-width="1.51"/><path d="M1116,480L1186,594L1239,571Z" fill="#69a264" stroke="#69a264" stroke-width="1.51"/><path d="M1086,1943L1164,2083L1254,1947Z" fill="#005f34" stroke="#005f34" stroke-width="1.51"/><path d="M1133,1805L1086,1943L1254,1947Z" fill="#006536" stroke="#006536" stroke-width="1.51"/><path d="M1127,1327L1112,1515L1237,1473Z" fill="#1b7e42" stroke="#1b7e42" stroke-width="1.51"/><path d="M1017,-176L1085,-6L1125,-216Z" fill="#8eb785" stroke="#8eb785" stroke-width="1.51"/><path d="M1019,1289L1127,1327L1144,1143Z" fill="#2a8d4c" stroke="#2a8d4c" stroke-width="1.51"/><path d="M1030,1160L1019,1289L1144,1143Z" fill="#33924f" stroke="#33924f" stroke-width="1.51"/><path d="M1035,476L1116,480L1153,275Z" fill="#77ad6a" stroke="#77ad6a" stroke-width="1.51"/><path d="M1086,1943L1043,2032L1164,2083Z" fill="#066235" stroke="#066235" stroke-width="1.51"/><path d="M1028,82L1153,275L1166,121Z" fill="#84b173" stroke="#84b173" stroke-width="1.51"/><path d="M1014,1580L1133,1805L1183,1600Z" fill="#12743c" stroke="#12743c" stroke-width="1.51"/><path d="M1116,480L1035,476L1186,594Z" fill="#6fa967" stroke="#6fa967" stroke-width="1.51"/><path d="M1035,476L944,582L1186,594Z" fill="#6fac68" stroke="#6fac68" stroke-width="1.51"/><path d="M944,582L992,737L1186,594Z" fill="#69aa66" stroke="#69aa66" stroke-width="1.51"/><path d="M992,737L1149,790L1186,594Z" fill="#60a361" stroke="#60a361" stroke-width="1.51"/><path d="M1085,-6L1028,82L1166,121Z" fill="#8ab577" stroke="#8ab577" stroke-width="1.51"/><path d="M1112,1515L1014,1580L1183,1600Z" fill="#19793e" stroke="#19793e" stroke-width="1.51"/><path d="M1014,1580L972,1821L1133,1805Z" fill="#14753d" stroke="#14753d" stroke-width="1.51"/><path d="M940,301L1035,476L1153,275Z" fill="#7fb36f" stroke="#7fb36f" stroke-width="1.51"/><path d="M1028,82L940,301L1153,275Z" fill="#85b673" stroke="#85b673" stroke-width="1.51"/><path d="M1017,981L1085,1002L1157,854Z" fill="#4a9c5a" stroke="#4a9c5a" stroke-width="1.51"/><path d="M1019,1289L956,1516L1112,1515Z" fill="#248646" stroke="#248646" stroke-width="1.51"/><path d="M1019,1289L1112,1515L1127,1327Z" fill="#248747" stroke="#248747" stroke-width="1.51"/><path d="M1085,1002L1030,1160L1144,1143Z" fill="#3c9553" stroke="#3c9553" stroke-width="1.51"/><path d="M1149,790L949,861L1157,854Z" fill="#55a05d" stroke="#55a05d" stroke-width="1.51"/><path d="M949,861L1017,981L1157,854Z" fill="#51a15d" stroke="#51a15d" stroke-width="1.51"/><path d="M992,737L949,861L1149,790Z" fill="#5ca560" stroke="#5ca560" stroke-width="1.51"/><path d="M636,-198L832,-120L1017,-176Z" fill="#9ecd94" stroke="#9ecd94" stroke-width="1.51"/><path d="M972,1821L1086,1943L1133,1805Z" fill="#0a6e39" stroke="#0a6e39" stroke-width="1.51"/><path d="M1017,981L1030,1160L1085,1002Z" fill="#439a57" stroke="#439a57" stroke-width="1.51"/><path d="M1017,-176L956,8L1085,-6Z" fill="#90bb82" stroke="#90bb82" stroke-width="1.51"/><path d="M956,1516L1014,1580L1112,1515Z" fill="#1f8042" stroke="#1f8042" stroke-width="1.51"/><path d="M956,8L1028,82L1085,-6Z" fill="#8fba7c" stroke="#8fba7c" stroke-width="1.51"/><path d="M1003,1967L1043,2032L1086,1943Z" fill="#0b6837" stroke="#0b6837" stroke-width="1.51"/><path d="M972,1821L1003,1967L1086,1943Z" fill="#0e6e3a" stroke="#0e6e3a" stroke-width="1.51"/><path d="M682,2039L483,2117L856,2073Z" fill="#2e8049" stroke="#2e8049" stroke-width="1.51"/><path d="M836,1389L848,1448L956,1516Z" fill="#2e924c" stroke="#2e924c" stroke-width="1.51"/><path d="M972,1821L888,1899L1003,1967Z" fill="#14743c" stroke="#14743c" stroke-width="1.51"/><path d="M847,1592L972,1821L1014,1580Z" fill="#1f8041" stroke="#1f8041" stroke-width="1.51"/><path d="M832,-120L956,8L1017,-176Z" fill="#96c288" stroke="#96c288" stroke-width="1.51"/><path d="M836,1389L956,1516L1019,1289Z" fill="#2c904b" stroke="#2c904b" stroke-width="1.51"/><path d="M891,80L940,301L1028,82Z" fill="#8ebd78" stroke="#8ebd78" stroke-width="1.51"/><path d="M894,1134L1019,1289L1030,1160Z" fill="#379852" stroke="#379852" stroke-width="1.51"/><path d="M1017,981L894,1134L1030,1160Z" fill="#429d57" stroke="#429d57" stroke-width="1.51"/><path d="M1003,1967L856,2073L1043,2032Z" fill="#116b38" stroke="#116b38" stroke-width="1.51"/><path d="M847,1592L837,1813L972,1821Z" fill="#208243" stroke="#208243" stroke-width="1.51"/><path d="M786,481L944,582L1035,476Z" fill="#7ab76e" stroke="#7ab76e" stroke-width="1.51"/><path d="M940,301L786,481L1035,476Z" fill="#81ba72" stroke="#81ba72" stroke-width="1.51"/><path d="M819,1019L894,1134L1017,981Z" fill="#4ba55c" stroke="#4ba55c" stroke-width="1.51"/><path d="M956,8L891,80L1028,82Z" fill="#92bf7c" stroke="#92bf7c" stroke-width="1.51"/><path d="M949,861L893,867L1017,981Z" fill="#55a65f" stroke="#55a65f" stroke-width="1.51"/><path d="M894,1134L836,1389L1019,1289Z" fill="#349a51" stroke="#349a51" stroke-width="1.51"/><path d="M881,766L949,861L992,737Z" fill="#62ac64" stroke="#62ac64" stroke-width="1.51"/><path d="M893,867L819,1019L1017,981Z" fill="#53a960" stroke="#53a960" stroke-width="1.51"/><path d="M956,1516L847,1592L1014,1580Z" fill="#248544" stroke="#248544" stroke-width="1.51"/><path d="M220,-216L406,-173L591,-193Z" fill="#cdeab2" stroke="#cdeab2" stroke-width="1.51"/><path d="M891,80L785,256L940,301Z" fill="#91c47c" stroke="#91c47c" stroke-width="1.51"/><path d="M944,582L881,766L992,737Z" fill="#6aaf68" stroke="#6aaf68" stroke-width="1.51"/><path d="M888,1899L856,2073L1003,1967Z" fill="#17723c" stroke="#17723c" stroke-width="1.51"/><path d="M786,481L819,566L944,582Z" fill="#7cbd72" stroke="#7cbd72" stroke-width="1.51"/><path d="M819,566L881,766L944,582Z" fill="#73b76d" stroke="#73b76d" stroke-width="1.51"/><path d="M881,766L893,867L949,861Z" fill="#60ae65" stroke="#60ae65" stroke-width="1.51"/><path d="M832,-120L890,30L956,8Z" fill="#98c686" stroke="#98c686" stroke-width="1.51"/><path d="M890,30L891,80L956,8Z" fill="#96c380" stroke="#96c380" stroke-width="1.51"/><path d="M837,1813L888,1899L972,1821Z" fill="#1a7b41" stroke="#1a7b41" stroke-width="1.51"/><path d="M696,1228L836,1389L894,1134Z" fill="#3ea559" stroke="#3ea559" stroke-width="1.51"/><path d="M735,424L786,481L940,301Z" fill="#89c579" stroke="#89c579" stroke-width="1.51"/><path d="M785,256L735,424L940,301Z" fill="#8ec77b" stroke="#8ec77b" stroke-width="1.51"/><path d="M848,1448L847,1592L956,1516Z" fill="#2a8d49" stroke="#2a8d49" stroke-width="1.51"/><path d="M698,1817L837,1813L847,1592Z" fill="#278a49" stroke="#278a49" stroke-width="1.51"/><path d="M819,566L742,776L881,766Z" fill="#72bc6f" stroke="#72bc6f" stroke-width="1.51"/><path d="M638,1958L682,2039L888,1899Z" fill="#268247" stroke="#268247" stroke-width="1.51"/><path d="M682,2039L856,2073L888,1899Z" fill="#1f7a42" stroke="#1f7a42" stroke-width="1.51"/><path d="M832,-120L742,-36L890,30Z" fill="#9dcd8c" stroke="#9dcd8c" stroke-width="1.51"/><path d="M716,92L785,256L891,80Z" fill="#9acd83" stroke="#9acd83" stroke-width="1.51"/><path d="M712,858L819,1019L893,867Z" fill="#5eb468" stroke="#5eb468" stroke-width="1.51"/><path d="M881,766L742,776L893,867Z" fill="#67b56a" stroke="#67b56a" stroke-width="1.51"/><path d="M742,776L712,858L893,867Z" fill="#68ba6d" stroke="#68ba6d" stroke-width="1.51"/><path d="M819,1019L680,1088L894,1134Z" fill="#4fae62" stroke="#4fae62" stroke-width="1.51"/><path d="M680,1088L696,1228L894,1134Z" fill="#4caf61" stroke="#4caf61" stroke-width="1.51"/><path d="M890,30L716,92L891,80Z" fill="#9bcb83" stroke="#9bcb83" stroke-width="1.51"/><path d="M680,1581L698,1817L847,1592Z" fill="#2e934e" stroke="#2e934e" stroke-width="1.51"/><path d="M698,1817L638,1958L888,1899Z" fill="#26874a" stroke="#26874a" stroke-width="1.51"/><path d="M742,-36L716,92L890,30Z" fill="#9fd08a" stroke="#9fd08a" stroke-width="1.51"/><path d="M837,1813L698,1817L888,1899Z" fill="#218446" stroke="#218446" stroke-width="1.51"/><path d="M692,323L735,424L785,256Z" fill="#95cf81" stroke="#95cf81" stroke-width="1.51"/><path d="M696,1228L681,1389L836,1389Z" fill="#3fa65a" stroke="#3fa65a" stroke-width="1.51"/><path d="M680,1536L847,1592L848,1448Z" fill="#31954e" stroke="#31954e" stroke-width="1.51"/><path d="M654,554L742,776L819,566Z" fill="#7ec677" stroke="#7ec677" stroke-width="1.51"/><path d="M680,1536L680,1581L847,1592Z" fill="#339750" stroke="#339750" stroke-width="1.51"/><path d="M836,1389L681,1389L848,1448Z" fill="#379d54" stroke="#379d54" stroke-width="1.51"/><path d="M681,1389L680,1536L848,1448Z" fill="#399e55" stroke="#399e55" stroke-width="1.51"/><path d="M636,-198L742,-36L832,-120Z" fill="#a5d597" stroke="#a5d597" stroke-width="1.51"/><path d="M712,858L680,1088L819,1019Z" fill="#5db76a" stroke="#5db76a" stroke-width="1.51"/><path d="M786,481L654,554L819,566Z" fill="#84c879" stroke="#84c879" stroke-width="1.51"/><path d="M716,92L585,173L785,256Z" fill="#a2d58a" stroke="#a2d58a" stroke-width="1.51"/><path d="M585,173L692,323L785,256Z" fill="#9ed487" stroke="#9ed487" stroke-width="1.51"/><path d="M735,424L654,554L786,481Z" fill="#8bcb7c" stroke="#8bcb7c" stroke-width="1.51"/><path d="M444,2099L36,2106L483,2117Z" fill="#5d915b" stroke="#5d915b" stroke-width="1.51"/><path d="M520,912L582,1083L680,1088Z" fill="#6cbf72" stroke="#6cbf72" stroke-width="1.51"/><path d="M577,1340L681,1389L696,1228Z" fill="#4cad61" stroke="#4cad61" stroke-width="1.51"/><path d="M680,1581L534,1629L698,1817Z" fill="#3f9854" stroke="#3f9854" stroke-width="1.51"/><path d="M520,912L680,1088L712,858Z" fill="#6dc073" stroke="#6dc073" stroke-width="1.51"/><path d="M654,554L524,600L742,776Z" fill="#88cc7d" stroke="#88cc7d" stroke-width="1.51"/><path d="M524,600L503,775L742,776Z" fill="#88cc7e" stroke="#88cc7e" stroke-width="1.51"/><path d="M503,775L712,858L742,776Z" fill="#79c577" stroke="#79c577" stroke-width="1.51"/><path d="M531,-41L716,92L742,-36Z" fill="#acda94" stroke="#acda94" stroke-width="1.51"/><path d="M636,-198L531,-41L742,-36Z" fill="#b0dc9c" stroke="#b0dc9c" stroke-width="1.51"/><path d="M514,448L654,554L735,424Z" fill="#96d283" stroke="#96d283" stroke-width="1.51"/><path d="M569,333L514,448L735,424Z" fill="#9fd588" stroke="#9fd588" stroke-width="1.51"/><path d="M692,323L569,333L735,424Z" fill="#9bd385" stroke="#9bd385" stroke-width="1.51"/><path d="M591,-193L531,-41L636,-198Z" fill="#b7dfa4" stroke="#b7dfa4" stroke-width="1.51"/><path d="M585,173L569,333L692,323Z" fill="#a5d88b" stroke="#a5d88b" stroke-width="1.51"/><path d="M680,1088L582,1083L696,1228Z" fill="#5bb669" stroke="#5bb669" stroke-width="1.51"/><path d="M534,1629L503,1798L698,1817Z" fill="#449957" stroke="#449957" stroke-width="1.51"/><path d="M531,-41L585,173L716,92Z" fill="#b0dc93" stroke="#b0dc93" stroke-width="1.51"/><path d="M561,1538L680,1536L681,1389Z" fill="#46a35a" stroke="#46a35a" stroke-width="1.51"/><path d="M503,775L520,912L712,858Z" fill="#7ec87a" stroke="#7ec87a" stroke-width="1.51"/><path d="M503,1798L534,1951L638,1958Z" fill="#429254" stroke="#429254" stroke-width="1.51"/><path d="M582,1083L511,1167L696,1228Z" fill="#60b96b" stroke="#60b96b" stroke-width="1.51"/><path d="M503,1798L638,1958L698,1817Z" fill="#3b9152" stroke="#3b9152" stroke-width="1.51"/><path d="M511,1167L577,1340L696,1228Z" fill="#58b567" stroke="#58b567" stroke-width="1.51"/><path d="M577,1340L561,1538L681,1389Z" fill="#4ea95f" stroke="#4ea95f" stroke-width="1.51"/><path d="M680,1536L561,1538L680,1581Z" fill="#439f57" stroke="#439f57" stroke-width="1.51"/><path d="M561,1538L534,1629L680,1581Z" fill="#48a059" stroke="#48a059" stroke-width="1.51"/><path d="M638,1958L534,1951L682,2039Z" fill="#38894e" stroke="#38894e" stroke-width="1.51"/><path d="M534,1951L483,2117L682,2039Z" fill="#3e8951" stroke="#3e8951" stroke-width="1.51"/><path d="M531,-41L445,36L585,173Z" fill="#bbe29a" stroke="#bbe29a" stroke-width="1.51"/><path d="M514,448L524,600L654,554Z" fill="#9ad486" stroke="#9ad486" stroke-width="1.51"/><path d="M193,2048L36,2106L444,2099Z" fill="#679760" stroke="#679760" stroke-width="1.51"/><path d="M418,1345L367,1457L561,1538Z" fill="#63b167" stroke="#63b167" stroke-width="1.51"/><path d="M418,1345L561,1538L577,1340Z" fill="#5ab065" stroke="#5ab065" stroke-width="1.51"/><path d="M511,1167L418,1345L577,1340Z" fill="#63b96c" stroke="#63b96c" stroke-width="1.51"/><path d="M520,912L360,991L582,1083Z" fill="#7cc87a" stroke="#7cc87a" stroke-width="1.51"/><path d="M445,36L397,99L585,173Z" fill="#bfe49a" stroke="#bfe49a" stroke-width="1.51"/><path d="M406,274L569,333L585,173Z" fill="#b1de92" stroke="#b1de92" stroke-width="1.51"/><path d="M406,-173L531,-41L591,-193Z" fill="#c0e4a8" stroke="#c0e4a8" stroke-width="1.51"/><path d="M417,720L503,775L524,600Z" fill="#97d485" stroke="#97d485" stroke-width="1.51"/><path d="M444,2099L483,2117L534,1951Z" fill="#488c54" stroke="#488c54" stroke-width="1.51"/><path d="M360,991L511,1167L582,1083Z" fill="#75c476" stroke="#75c476" stroke-width="1.51"/><path d="M397,99L406,274L585,173Z" fill="#bce398" stroke="#bce398" stroke-width="1.51"/><path d="M514,448L422,574L524,600Z" fill="#a3d98a" stroke="#a3d98a" stroke-width="1.51"/><path d="M406,274L514,448L569,333Z" fill="#b0de90" stroke="#b0de90" stroke-width="1.51"/><path d="M503,1798L379,1911L534,1951Z" fill="#4e985a" stroke="#4e985a" stroke-width="1.51"/><path d="M394,1605L534,1629L561,1538Z" fill="#55a55f" stroke="#55a55f" stroke-width="1.51"/><path d="M367,1457L394,1605L561,1538Z" fill="#5fab63" stroke="#5fab63" stroke-width="1.51"/><path d="M385,1829L379,1911L503,1798Z" fill="#569d5d" stroke="#569d5d" stroke-width="1.51"/><path d="M394,1605L385,1829L503,1798Z" fill="#59a25f" stroke="#59a25f" stroke-width="1.51"/><path d="M360,991L353,1146L511,1167Z" fill="#7ec779" stroke="#7ec779" stroke-width="1.51"/><path d="M406,274L375,485L514,448Z" fill="#b4e092" stroke="#b4e092" stroke-width="1.51"/><path d="M503,775L385,902L520,912Z" fill="#8bcd80" stroke="#8bcd80" stroke-width="1.51"/><path d="M385,902L360,991L520,912Z" fill="#8ace80" stroke="#8ace80" stroke-width="1.51"/><path d="M422,574L417,720L524,600Z" fill="#a0d889" stroke="#a0d889" stroke-width="1.51"/><path d="M406,-173L445,36L531,-41Z" fill="#c4e6a5" stroke="#c4e6a5" stroke-width="1.51"/><path d="M379,1911L444,2099L534,1951Z" fill="#4e9258" stroke="#4e9258" stroke-width="1.51"/><path d="M394,1605L503,1798L534,1629Z" fill="#55a25e" stroke="#55a25e" stroke-width="1.51"/><path d="M353,1146L418,1345L511,1167Z" fill="#71c172" stroke="#71c172" stroke-width="1.51"/><path d="M375,485L422,574L514,448Z" fill="#acdd8e" stroke="#acdd8e" stroke-width="1.51"/><path d="M417,720L385,902L503,775Z" fill="#95d284" stroke="#95d284" stroke-width="1.51"/><path d="M265,1662L261,1788L385,1829Z" fill="#68a764" stroke="#68a764" stroke-width="1.51"/><path d="M265,1662L385,1829L394,1605Z" fill="#65a864" stroke="#65a864" stroke-width="1.51"/><path d="M235,435L375,485L406,274Z" fill="#c0e596" stroke="#c0e596" stroke-width="1.51"/><path d="M238,289L235,435L406,274Z" fill="#c9e99b" stroke="#c9e99b" stroke-width="1.51"/><path d="M216,769L385,902L417,720Z" fill="#a1d888" stroke="#a1d888" stroke-width="1.51"/><path d="M353,1146L251,1198L418,1345Z" fill="#7cc576" stroke="#7cc576" stroke-width="1.51"/><path d="M267,599L417,720L422,574Z" fill="#abdc8d" stroke="#abdc8d" stroke-width="1.51"/><path d="M379,1911L193,2048L444,2099Z" fill="#5d965c" stroke="#5d965c" stroke-width="1.51"/><path d="M406,-173L232,-16L445,36Z" fill="#d0ecaa" stroke="#d0ecaa" stroke-width="1.51"/><path d="M232,-16L397,99L445,36Z" fill="#d0eba3" stroke="#d0eba3" stroke-width="1.51"/><path d="M397,99L216,118L406,274Z" fill="#cdea9f" stroke="#cdea9f" stroke-width="1.51"/><path d="M216,118L238,289L406,274Z" fill="#cfeba0" stroke="#cfeba0" stroke-width="1.51"/><path d="M251,1198L203,1312L418,1345Z" fill="#7ec576" stroke="#7ec576" stroke-width="1.51"/><path d="M375,485L267,599L422,574Z" fill="#b3e090" stroke="#b3e090" stroke-width="1.51"/><path d="M261,1060L353,1146L360,991Z" fill="#8ccd7f" stroke="#8ccd7f" stroke-width="1.51"/><path d="M192,1955L193,2048L379,1911Z" fill="#679d62" stroke="#679d62" stroke-width="1.51"/><path d="M220,-216L232,-16L406,-173Z" fill="#daf0b4" stroke="#daf0b4" stroke-width="1.51"/><path d="M267,599L216,769L417,720Z" fill="#aedd8e" stroke="#aedd8e" stroke-width="1.51"/><path d="M203,1312L367,1457L418,1345Z" fill="#76bc70" stroke="#76bc70" stroke-width="1.51"/><path d="M203,1312L222,1449L367,1457Z" fill="#7cbd72" stroke="#7cbd72" stroke-width="1.51"/><path d="M222,1449L265,1662L367,1457Z" fill="#74b56b" stroke="#74b56b" stroke-width="1.51"/><path d="M367,1457L265,1662L394,1605Z" fill="#6baf66" stroke="#6baf66" stroke-width="1.51"/><path d="M216,769L204,891L385,902Z" fill="#a3d98a" stroke="#a3d98a" stroke-width="1.51"/><path d="M232,-16L216,118L397,99Z" fill="#d7efa5" stroke="#d7efa5" stroke-width="1.51"/><path d="M261,1788L379,1911L385,1829Z" fill="#61a261" stroke="#61a261" stroke-width="1.51"/><path d="M204,891L360,991L385,902Z" fill="#98d485" stroke="#98d485" stroke-width="1.51"/><path d="M261,1788L192,1955L379,1911Z" fill="#67a263" stroke="#67a263" stroke-width="1.51"/><path d="M235,435L267,599L375,485Z" fill="#bde495" stroke="#bde495" stroke-width="1.51"/><path d="M204,891L261,1060L360,991Z" fill="#98d385" stroke="#98d385" stroke-width="1.51"/><path d="M261,1060L251,1198L353,1146Z" fill="#8acc7e" stroke="#8acc7e" stroke-width="1.51"/><path d="M90,571L60,728L216,769Z" fill="#c1e698" stroke="#c1e698" stroke-width="1.51"/><path d="M220,-216L104,-55L232,-16Z" fill="#e4f5b6" stroke="#e4f5b6" stroke-width="1.51"/><path d="M112,434L90,571L235,435Z" fill="#cfeb9e" stroke="#cfeb9e" stroke-width="1.51"/><path d="M112,434L235,435L238,289Z" fill="#d0ec9e" stroke="#d0ec9e" stroke-width="1.51"/><path d="M216,118L130,168L238,289Z" fill="#dbf1a5" stroke="#dbf1a5" stroke-width="1.51"/><path d="M204,891L98,1068L261,1060Z" fill="#9fd689" stroke="#9fd689" stroke-width="1.51"/><path d="M142,1146L251,1198L261,1060Z" fill="#92cf81" stroke="#92cf81" stroke-width="1.51"/><path d="M85,1690L142,1839L261,1788Z" fill="#77ad6a" stroke="#77ad6a" stroke-width="1.51"/><path d="M142,1839L192,1955L261,1788Z" fill="#70a767" stroke="#70a767" stroke-width="1.51"/><path d="M222,1449L130,1529L265,1662Z" fill="#7bb76e" stroke="#7bb76e" stroke-width="1.51"/><path d="M85,1690L261,1788L265,1662Z" fill="#75ae6a" stroke="#75ae6a" stroke-width="1.51"/><path d="M130,1529L85,1690L265,1662Z" fill="#7db56e" stroke="#7db56e" stroke-width="1.51"/><path d="M235,435L90,571L267,599Z" fill="#c5e899" stroke="#c5e899" stroke-width="1.51"/><path d="M90,571L216,769L267,599Z" fill="#bee495" stroke="#bee495" stroke-width="1.51"/><path d="M98,1068L142,1146L261,1060Z" fill="#9bd386" stroke="#9bd386" stroke-width="1.51"/><path d="M62,-123L104,-55L220,-216Z" fill="#ebf7bc" stroke="#ebf7bc" stroke-width="1.51"/><path d="M203,1312L115,1367L222,1449Z" fill="#87c378" stroke="#87c378" stroke-width="1.51"/><path d="M142,1146L203,1312L251,1198Z" fill="#8ecc7e" stroke="#8ecc7e" stroke-width="1.51"/><path d="M110,835L204,891L216,769Z" fill="#afde90" stroke="#afde90" stroke-width="1.51"/><path d="M104,-55L216,118L232,-16Z" fill="#e3f4ae" stroke="#e3f4ae" stroke-width="1.51"/><path d="M130,168L59,284L238,289Z" fill="#ddf2a6" stroke="#ddf2a6" stroke-width="1.51"/><path d="M59,284L112,434L238,289Z" fill="#d9f0a3" stroke="#d9f0a3" stroke-width="1.51"/><path d="M104,-55L130,168L216,118Z" fill="#e5f5ac" stroke="#e5f5ac" stroke-width="1.51"/><path d="M-31,-222L62,-123L220,-216Z" fill="#eff9c2" stroke="#eff9c2" stroke-width="1.51"/><path d="M115,1367L130,1529L222,1449Z" fill="#85bf75" stroke="#85bf75" stroke-width="1.51"/><path d="M110,835L98,1068L204,891Z" fill="#abdc8e" stroke="#abdc8e" stroke-width="1.51"/><path d="M142,1146L115,1367L203,1312Z" fill="#8fcc7d" stroke="#8fcc7d" stroke-width="1.51"/><path d="M60,728L110,835L216,769Z" fill="#b9e294" stroke="#b9e294" stroke-width="1.51"/><path d="M142,1839L85,1947L192,1955Z" fill="#75a668" stroke="#75a668" stroke-width="1.51"/><path d="M192,1955L85,1947L193,2048Z" fill="#71a066" stroke="#71a066" stroke-width="1.51"/><path d="M85,1947L36,2106L193,2048Z" fill="#749f67" stroke="#749f67" stroke-width="1.51"/><path d="M-51,-20L-52,120L104,-55Z" fill="#f2fab8" stroke="#f2fab8" stroke-width="1.51"/><path d="M-43,866L98,1068L110,835Z" fill="#b3df93" stroke="#b3df93" stroke-width="1.51"/><path d="M115,1367L-21,1355L130,1529Z" fill="#8ec47b" stroke="#8ec47b" stroke-width="1.51"/><path d="M-21,1355L-82,1483L130,1529Z" fill="#91c47c" stroke="#91c47c" stroke-width="1.51"/><path d="M-21,1631L85,1690L130,1529Z" fill="#86b973" stroke="#86b973" stroke-width="1.51"/><path d="M104,-55L-52,120L130,168Z" fill="#ecf8b1" stroke="#ecf8b1" stroke-width="1.51"/><path d="M98,1068L-102,1129L142,1146Z" fill="#a3d78a" stroke="#a3d78a" stroke-width="1.51"/><path d="M-102,1129L-21,1355L142,1146Z" fill="#9fd388" stroke="#9fd388" stroke-width="1.51"/><path d="M-21,1355L115,1367L142,1146Z" fill="#94cd80" stroke="#94cd80" stroke-width="1.51"/><path d="M85,1690L-31,1830L142,1839Z" fill="#7fb070" stroke="#7fb070" stroke-width="1.51"/><path d="M-28,1898L85,1947L142,1839Z" fill="#7baa6c" stroke="#7baa6c" stroke-width="1.51"/><path d="M-31,1830L-28,1898L142,1839Z" fill="#7fad70" stroke="#7fad70" stroke-width="1.51"/><path d="M-43,866L-89,1044L98,1068Z" fill="#b1de94" stroke="#b1de94" stroke-width="1.51"/><path d="M-82,1483L-21,1631L130,1529Z" fill="#8cbe78" stroke="#8cbe78" stroke-width="1.51"/><path d="M-52,120L59,284L130,168Z" fill="#e8f6ad" stroke="#e8f6ad" stroke-width="1.51"/><path d="M-76,679L60,728L90,571Z" fill="#cbea9e" stroke="#cbea9e" stroke-width="1.51"/><path d="M59,284L-64,325L112,434Z" fill="#e0f3a8" stroke="#e0f3a8" stroke-width="1.51"/><path d="M-64,325L-72,454L112,434Z" fill="#e0f3a8" stroke="#e0f3a8" stroke-width="1.51"/><path d="M-72,454L90,571L112,434Z" fill="#d6efa3" stroke="#d6efa3" stroke-width="1.51"/><path d="M60,728L-43,866L110,835Z" fill="#bce497" stroke="#bce497" stroke-width="1.51"/><path d="M62,-123L-51,-20L104,-55Z" fill="#f1f9bc" stroke="#f1f9bc" stroke-width="1.51"/><path d="M-28,1898L36,2106L85,1947Z" fill="#7ba56c" stroke="#7ba56c" stroke-width="1.51"/><path d="M-89,1044L-102,1129L98,1068Z" fill="#acda90" stroke="#acda90" stroke-width="1.51"/><path d="M-21,1631L-31,1830L85,1690Z" fill="#86b574" stroke="#86b574" stroke-width="1.51"/><path d="M-72,454L-105,578L90,571Z" fill="#d8efa5" stroke="#d8efa5" stroke-width="1.51"/><path d="M-105,578L-76,679L90,571Z" fill="#d3eda3" stroke="#d3eda3" stroke-width="1.51"/><path d="M-28,1898L-105,2114L36,2106Z" fill="#7ea36e" stroke="#7ea36e" stroke-width="1.51"/><path d="M-52,120L-64,325L59,284Z" fill="#eaf7af" stroke="#eaf7af" stroke-width="1.51"/><path d="M-76,679L-43,866L60,728Z" fill="#c5e89d" stroke="#c5e89d" stroke-width="1.51"/><path d="M-31,-222L-51,-20L62,-123Z" fill="#f5fbc3" stroke="#f5fbc3" stroke-width="1.51"/><path d="M-155,251L-64,325L-52,120Z" fill="#eff9b3" stroke="#eff9b3" stroke-width="1.51"/><path d="M-102,1129L-192,1241L-21,1355Z" fill="#a3d58e" stroke="#a3d58e" stroke-width="1.51"/><path d="M-170,1741L-31,1830L-21,1631Z" fill="#8bb777" stroke="#8bb777" stroke-width="1.51"/><path d="M-225,1003L-89,1044L-43,866Z" fill="#b9e19c" stroke="#b9e19c" stroke-width="1.51"/><path d="M-76,679L-220,736L-43,866Z" fill="#cbe9a3" stroke="#cbe9a3" stroke-width="1.51"/><path d="M-220,736L-233,836L-43,866Z" fill="#c8e7a7" stroke="#c8e7a7" stroke-width="1.51"/><path d="M-176,-159L-51,-20L-31,-222Z" fill="#fafdc8" stroke="#fafdc8" stroke-width="1.51"/><path d="M-171,1908L-105,2114L-28,1898Z" fill="#84a874" stroke="#84a874" stroke-width="1.51"/><path d="M-223,1391L-82,1483L-21,1355Z" fill="#9ac986" stroke="#9ac986" stroke-width="1.51"/><path d="M-192,1241L-223,1391L-21,1355Z" fill="#9fd08d" stroke="#9fd08d" stroke-width="1.51"/><path d="M-82,1483L-178,1613L-21,1631Z" fill="#92bf7d" stroke="#92bf7d" stroke-width="1.51"/><path d="M-178,1613L-170,1741L-21,1631Z" fill="#8fba7e" stroke="#8fba7e" stroke-width="1.51"/><path d="M-31,1830L-171,1908L-28,1898Z" fill="#86af74" stroke="#86af74" stroke-width="1.51"/><path d="M-246,114L-52,120L-51,-20Z" fill="#f8fdbd" stroke="#f8fdbd" stroke-width="1.51"/><path d="M-170,1741L-171,1908L-31,1830Z" fill="#89b27a" stroke="#89b27a" stroke-width="1.51"/><path d="M-171,1908L-196,2108L-105,2114Z" fill="#82a477" stroke="#82a477" stroke-width="1.51"/><path d="M-233,836L-225,1003L-43,866Z" fill="#c0e4a4" stroke="#c0e4a4" stroke-width="1.51"/><path d="M-260,429L-72,454L-64,325Z" fill="#e6f5b2" stroke="#e6f5b2" stroke-width="1.51"/><path d="M-246,114L-155,251L-52,120Z" fill="#f4fbbd" stroke="#f4fbbd" stroke-width="1.51"/><path d="M-176,-159L-263,-69L-51,-20Z" fill="#fbfdcd" stroke="#fbfdcd" stroke-width="1.51"/><path d="M-263,-69L-246,114L-51,-20Z" fill="#fbfdc9" stroke="#fbfdc9" stroke-width="1.51"/><path d="M-214,1541L-178,1613L-82,1483Z" fill="#95c184" stroke="#95c184" stroke-width="1.51"/><path d="M-207,545L-105,578L-72,454Z" fill="#ddf2ad" stroke="#ddf2ad" stroke-width="1.51"/><path d="M-155,251L-260,429L-64,325Z" fill="#ebf7b7" stroke="#ebf7b7" stroke-width="1.51"/><path d="M-260,429L-207,545L-72,454Z" fill="#e2f3b5" stroke="#e2f3b5" stroke-width="1.51"/><path d="M-105,578L-220,736L-76,679Z" fill="#d3eda9" stroke="#d3eda9" stroke-width="1.51"/><path d="M-207,545L-220,736L-105,578Z" fill="#d7efaf" stroke="#d7efaf" stroke-width="1.51"/><path d="M-223,1391L-214,1541L-82,1483Z" fill="#99c68a" stroke="#99c68a" stroke-width="1.51"/><path d="M-225,1003L-102,1129L-89,1044Z" fill="#b3dd9a" stroke="#b3dd9a" stroke-width="1.51"/><path d="M-225,1003L-192,1241L-102,1129Z" fill="#aeda9a" stroke="#aeda9a" stroke-width="1.51"/><path d="M-246,114L-260,429L-155,251Z" fill="#f0f9c0" stroke="#f0f9c0" stroke-width="1.51"/><path d="M-214,1541L-171,1908L-170,1741Z" fill="#8eb883" stroke="#8eb883" stroke-width="1.51"/><path d="M-178,1613L-214,1541L-170,1741Z" fill="#92bd85" stroke="#92bd85" stroke-width="1.51"/><path d="M-214,1541L-196,2108L-171,1908Z" fill="#89b281" stroke="#89b281" stroke-width="1.51"/><path d="M-225,1003L-223,1391L-192,1241Z" fill="#a8d79a" stroke="#a8d79a" stroke-width="1.51"/><path d="M-214,1541L-223,1391L-196,2108Z" fill="#90bb86" stroke="#90bb86" stroke-width="1.51"/><path d="M-260,429L-220,736L-207,545Z" fill="#dcf1b6" stroke="#dcf1b6" stroke-width="1.51"/><path d="M-260,429L-233,836L-220,736Z" fill="#d5edb4" stroke="#d5edb4" stroke-width="1.51"/><path d="M-225,1003L-233,836L-223,1391Z" fill="#b3dda2" stroke="#b3dda2" stroke-width="1.51"/><path d="M-233,836L-260,429L-223,1391Z" fill="#c2e5ac" stroke="#c2e5ac" stroke-width="1.51"/><path d="M-263,-69L-260,429L-246,114Z" fill="#f6fcc9" stroke="#f6fcc9" stroke-width="1.51"/></svg>