<svg xmlns="http://www.w3.org/2000/svg" width="1920" height="1080"><path d="M293,1285L111,1308L524,1271Z" fill="#6b9b6e" stroke="#6b9b6e" stroke-width="1.51"/><path d="M-254,-251L362,-251L1005,-269Z" fill="#def2d9" stroke="#def2d9" stroke-width="1.51"/><path d="M1223,1290L703,1266L1461,1333Z" fill="#308142" stroke="#308142" stroke-width="1.51"/><path d="M703,1266L524,1271L1461,1333Z" fill="#438a4d" stroke="#438a4d" stroke-width="1.51"/><path d="M524,1271L111,1308L1461,1333Z" fill="#528f57" stroke="#528f57" stroke-width="1.51"/><path d="M1005,-269L1361,-223L1761,-263Z" fill="#9bcda1" stroke="#9bcda1" stroke-width="1.51"/><path d="M1853,1277L1461,1333L2093,1312Z" fill="#036028" stroke="#036028" stroke-width="1.51"/><path d="M1924,1253L1853,1277L2093,1312Z" fill="#005924" stroke="#005924" stroke-width="1.51"/><path d="M2066,1104L1993,1175L2093,1312Z" fill="#005b25" stroke="#005b25" stroke-width="1.51"/><path d="M2071,-29L2057,72L2100,239Z" fill="#6c9b6e" stroke="#6c9b6e" stroke-width="1.51"/><path d="M1964,655L2073,791L2132,604Z" fill="#2c8242" stroke="#2c8242" stroke-width="1.51"/><path d="M2055,457L1964,655L2132,604Z" fill="#3b8848" stroke="#3b8848" stroke-width="1.51"/><path d="M2100,239L2061,324L2132,604Z" fill="#4f8e56" stroke="#4f8e56" stroke-width="1.51"/><path d="M2061,324L2055,457L2132,604Z" fill="#488c50" stroke="#488c50" stroke-width="1.51"/><path d="M1929,1004L2066,1104L2138,945Z" fill="#0c6a2f" stroke="#0c6a2f" stroke-width="1.51"/><path d="M1982,894L1929,1004L2138,945Z" fill="#127234" stroke="#127234" stroke-width="1.51"/><path d="M2077,827L1982,894L2138,945Z" fill="#177236" stroke="#177236" stroke-width="1.51"/><path d="M2066,1104L2093,1312L2138,945Z" fill="#025f27" stroke="#025f27" stroke-width="1.51"/><path d="M2132,604L2073,791L2138,945Z" fill="#1f773a" stroke="#1f773a" stroke-width="1.51"/><path d="M2073,791L2077,827L2138,945Z" fill="#197237" stroke="#197237" stroke-width="1.51"/><path d="M1761,-263L1988,-177L2139,-214Z" fill="#82ab86" stroke="#82ab86" stroke-width="1.51"/><path d="M1988,-177L2071,-29L2139,-214Z" fill="#7ba27e" stroke="#7ba27e" stroke-width="1.51"/><path d="M2071,-29L2100,239L2139,-214Z" fill="#729c74" stroke="#729c74" stroke-width="1.51"/><path d="M2100,239L2132,604L2139,-214Z" fill="#609464" stroke="#609464" stroke-width="1.51"/><path d="M2132,604L2138,945L2139,-214Z" fill="#48894f" stroke="#48894f" stroke-width="1.51"/><path d="M1988,-177L1930,-104L2071,-29Z" fill="#7ca77f" stroke="#7ca77f" stroke-width="1.51"/><path d="M1964,655L1941,745L2073,791Z" fill="#258341" stroke="#258341" stroke-width="1.51"/><path d="M1993,1175L1924,1253L2093,1312Z" fill="#005a24" stroke="#005a24" stroke-width="1.51"/><path d="M1929,177L2061,324L2100,239Z" fill="#609964" stroke="#609964" stroke-width="1.51"/><path d="M2057,72L1929,177L2100,239Z" fill="#689d6b" stroke="#689d6b" stroke-width="1.51"/><path d="M1992,34L2057,72L2071,-29Z" fill="#72a075" stroke="#72a075" stroke-width="1.51"/><path d="M1919,436L1964,655L2055,457Z" fill="#44914e" stroke="#44914e" stroke-width="1.51"/><path d="M1935,341L1919,436L2055,457Z" fill="#509657" stroke="#509657" stroke-width="1.51"/><path d="M1935,341L2055,457L2061,324Z" fill="#539559" stroke="#539559" stroke-width="1.51"/><path d="M1929,177L1935,341L2061,324Z" fill="#5e9d63" stroke="#5e9d63" stroke-width="1.51"/><path d="M2073,791L1982,894L2077,827Z" fill="#1b7839" stroke="#1b7839" stroke-width="1.51"/><path d="M1930,-104L1992,34L2071,-29Z" fill="#78a57b" stroke="#78a57b" stroke-width="1.51"/><path d="M1941,745L1982,894L2073,791Z" fill="#1e7d3c" stroke="#1e7d3c" stroke-width="1.51"/><path d="M1992,34L1929,177L2057,72Z" fill="#6fa171" stroke="#6fa171" stroke-width="1.51"/><path d="M1929,1004L1993,1175L2066,1104Z" fill="#05682b" stroke="#05682b" stroke-width="1.51"/><path d="M1919,436L1860,641L1964,655Z" fill="#3d924c" stroke="#3d924c" stroke-width="1.51"/><path d="M1862,936L1929,1004L1982,894Z" fill="#137837" stroke="#137837" stroke-width="1.51"/><path d="M1941,745L1889,757L1982,894Z" fill="#20823e" stroke="#20823e" stroke-width="1.51"/><path d="M1761,-263L1816,-173L1988,-177Z" fill="#86b389" stroke="#86b389" stroke-width="1.51"/><path d="M1930,-104L1804,74L1992,34Z" fill="#78ab7c" stroke="#78ab7c" stroke-width="1.51"/><path d="M1804,74L1929,177L1992,34Z" fill="#71a875" stroke="#71a875" stroke-width="1.51"/><path d="M1929,1004L1853,1201L1993,1175Z" fill="#026b2c" stroke="#026b2c" stroke-width="1.51"/><path d="M1853,1201L1924,1253L1993,1175Z" fill="#006328" stroke="#006328" stroke-width="1.51"/><path d="M1889,757L1862,936L1982,894Z" fill="#1b7f3c" stroke="#1b7f3c" stroke-width="1.51"/><path d="M1929,177L1828,222L1935,341Z" fill="#64a368" stroke="#64a368" stroke-width="1.51"/><path d="M1816,-173L1930,-104L1988,-177Z" fill="#81ae85" stroke="#81ae85" stroke-width="1.51"/><path d="M1761,1104L1853,1201L1929,1004Z" fill="#06712f" stroke="#06712f" stroke-width="1.51"/><path d="M1833,-125L1758,-41L1930,-104Z" fill="#81b284" stroke="#81b284" stroke-width="1.51"/><path d="M1758,-41L1804,74L1930,-104Z" fill="#7db080" stroke="#7db080" stroke-width="1.51"/><path d="M1816,-173L1833,-125L1930,-104Z" fill="#82b186" stroke="#82b186" stroke-width="1.51"/><path d="M1860,641L1889,757L1941,745Z" fill="#2a8b45" stroke="#2a8b45" stroke-width="1.51"/><path d="M1860,641L1941,745L1964,655Z" fill="#2f8c46" stroke="#2f8c46" stroke-width="1.51"/><path d="M1685,1220L1461,1333L1853,1277Z" fill="#0c692f" stroke="#0c692f" stroke-width="1.51"/><path d="M1740,575L1860,641L1919,436Z" fill="#439951" stroke="#439951" stroke-width="1.51"/><path d="M1789,421L1740,575L1919,436Z" fill="#4d9e57" stroke="#4d9e57" stroke-width="1.51"/><path d="M1864,387L1919,436L1935,341Z" fill="#559d5c" stroke="#559d5c" stroke-width="1.51"/><path d="M1828,222L1864,387L1935,341Z" fill="#5da263" stroke="#5da263" stroke-width="1.51"/><path d="M1748,819L1862,936L1889,757Z" fill="#1f8640" stroke="#1f8640" stroke-width="1.51"/><path d="M1804,74L1828,222L1929,177Z" fill="#6eaa72" stroke="#6eaa72" stroke-width="1.51"/><path d="M1813,950L1761,1104L1929,1004Z" fill="#107835" stroke="#107835" stroke-width="1.51"/><path d="M1862,936L1813,950L1929,1004Z" fill="#127a37" stroke="#127a37" stroke-width="1.51"/><path d="M1853,1201L1853,1277L1924,1253Z" fill="#006228" stroke="#006228" stroke-width="1.51"/><path d="M1864,387L1789,421L1919,436Z" fill="#539e5b" stroke="#539e5b" stroke-width="1.51"/><path d="M1804,74L1754,187L1828,222Z" fill="#70ac74" stroke="#70ac74" stroke-width="1.51"/><path d="M1748,819L1813,950L1862,936Z" fill="#1c823d" stroke="#1c823d" stroke-width="1.51"/><path d="M1828,222L1789,421L1864,387Z" fill="#5da363" stroke="#5da363" stroke-width="1.51"/><path d="M1860,641L1738,798L1889,757Z" fill="#298e46" stroke="#298e46" stroke-width="1.51"/><path d="M1738,798L1748,819L1889,757Z" fill="#258c44" stroke="#258c44" stroke-width="1.51"/><path d="M1005,-269L1135,-227L1361,-223Z" fill="#a7d8aa" stroke="#a7d8aa" stroke-width="1.51"/><path d="M1665,278L1789,421L1828,222Z" fill="#63a969" stroke="#63a969" stroke-width="1.51"/><path d="M1740,575L1738,798L1860,641Z" fill="#35944c" stroke="#35944c" stroke-width="1.51"/><path d="M1685,1220L1853,1277L1853,1201Z" fill="#04672b" stroke="#04672b" stroke-width="1.51"/><path d="M1761,1104L1685,1220L1853,1201Z" fill="#076f2f" stroke="#076f2f" stroke-width="1.51"/><path d="M1628,676L1738,798L1740,575Z" fill="#36984f" stroke="#36984f" stroke-width="1.51"/><path d="M1361,-223L1561,-164L1761,-263Z" fill="#92c397" stroke="#92c397" stroke-width="1.51"/><path d="M1680,1010L1761,1104L1813,950Z" fill="#147c38" stroke="#147c38" stroke-width="1.51"/><path d="M1754,187L1665,278L1828,222Z" fill="#6bad70" stroke="#6bad70" stroke-width="1.51"/><path d="M1816,-173L1758,-41L1833,-125Z" fill="#83b588" stroke="#83b588" stroke-width="1.51"/><path d="M1665,278L1657,418L1789,421Z" fill="#5ea866" stroke="#5ea866" stroke-width="1.51"/><path d="M1758,-41L1681,52L1804,74Z" fill="#7cb380" stroke="#7cb380" stroke-width="1.51"/><path d="M1748,819L1620,923L1813,950Z" fill="#208641" stroke="#208641" stroke-width="1.51"/><path d="M1620,923L1680,1010L1813,950Z" fill="#1c833e" stroke="#1c833e" stroke-width="1.51"/><path d="M1761,-263L1561,-164L1816,-173Z" fill="#8bbb90" stroke="#8bbb90" stroke-width="1.51"/><path d="M1561,-164L1758,-41L1816,-173Z" fill="#88b98c" stroke="#88b98c" stroke-width="1.51"/><path d="M1657,418L1740,575L1789,421Z" fill="#51a25c" stroke="#51a25c" stroke-width="1.51"/><path d="M1681,52L1754,187L1804,74Z" fill="#77b17b" stroke="#77b17b" stroke-width="1.51"/><path d="M1561,1221L1461,1333L1685,1220Z" fill="#127034" stroke="#127034" stroke-width="1.51"/><path d="M1681,52L1585,212L1754,187Z" fill="#75b37a" stroke="#75b37a" stroke-width="1.51"/><path d="M1631,14L1681,52L1758,-41Z" fill="#80b785" stroke="#80b785" stroke-width="1.51"/><path d="M1561,-164L1631,14L1758,-41Z" fill="#87bc8c" stroke="#87bc8c" stroke-width="1.51"/><path d="M1586,1131L1685,1220L1761,1104Z" fill="#0e7634" stroke="#0e7634" stroke-width="1.51"/><path d="M1680,1010L1586,1131L1761,1104Z" fill="#147b38" stroke="#147b38" stroke-width="1.51"/><path d="M1585,212L1665,278L1754,187Z" fill="#6eb174" stroke="#6eb174" stroke-width="1.51"/><path d="M1738,798L1620,923L1748,819Z" fill="#258c45" stroke="#258c45" stroke-width="1.51"/><path d="M1549,659L1628,676L1740,575Z" fill="#3f9e54" stroke="#3f9e54" stroke-width="1.51"/><path d="M1657,418L1533,438L1740,575Z" fill="#53a65f" stroke="#53a65f" stroke-width="1.51"/><path d="M1533,438L1549,659L1740,575Z" fill="#4ba45b" stroke="#4ba45b" stroke-width="1.51"/><path d="M1628,676L1620,923L1738,798Z" fill="#2a9249" stroke="#2a9249" stroke-width="1.51"/><path d="M1080,1248L703,1266L1223,1290Z" fill="#3b8948" stroke="#3b8948" stroke-width="1.51"/><path d="M1451,726L1620,923L1628,676Z" fill="#30984f" stroke="#30984f" stroke-width="1.51"/><path d="M1549,659L1451,726L1628,676Z" fill="#3ca055" stroke="#3ca055" stroke-width="1.51"/><path d="M1561,-164L1529,-107L1631,14Z" fill="#8bc090" stroke="#8bc090" stroke-width="1.51"/><path d="M1500,375L1657,418L1665,278Z" fill="#63af6b" stroke="#63af6b" stroke-width="1.51"/><path d="M1631,14L1585,212L1681,52Z" fill="#7cb781" stroke="#7cb781" stroke-width="1.51"/><path d="M1586,1131L1561,1221L1685,1220Z" fill="#117534" stroke="#117534" stroke-width="1.51"/><path d="M1487,160L1585,212L1631,14Z" fill="#7cba81" stroke="#7cba81" stroke-width="1.51"/><path d="M1505,998L1586,1131L1680,1010Z" fill="#1b823d" stroke="#1b823d" stroke-width="1.51"/><path d="M1620,923L1505,998L1680,1010Z" fill="#208741" stroke="#208741" stroke-width="1.51"/><path d="M1361,-223L1444,-161L1561,-164Z" fill="#95c89b" stroke="#95c89b" stroke-width="1.51"/><path d="M1500,375L1533,438L1657,418Z" fill="#5eae69" stroke="#5eae69" stroke-width="1.51"/><path d="M1585,212L1500,375L1665,278Z" fill="#6bb373" stroke="#6bb373" stroke-width="1.51"/><path d="M1533,438L1440,562L1549,659Z" fill="#4fa95f" stroke="#4fa95f" stroke-width="1.51"/><path d="M-254,-251L-95,-228L362,-251Z" fill="#eff9ea" stroke="#eff9ea" stroke-width="1.51"/><path d="M1451,726L1397,902L1620,923Z" fill="#2f964d" stroke="#2f964d" stroke-width="1.51"/><path d="M1434,45L1487,160L1631,14Z" fill="#82be88" stroke="#82be88" stroke-width="1.51"/><path d="M1461,-32L1434,45L1631,14Z" fill="#87c08d" stroke="#87c08d" stroke-width="1.51"/><path d="M1529,-107L1461,-32L1631,14Z" fill="#8ac08f" stroke="#8ac08f" stroke-width="1.51"/><path d="M1397,902L1505,998L1620,923Z" fill="#278e47" stroke="#278e47" stroke-width="1.51"/><path d="M1487,160L1500,375L1585,212Z" fill="#72b878" stroke="#72b878" stroke-width="1.51"/><path d="M1392,1087L1561,1221L1586,1131Z" fill="#187f3a" stroke="#187f3a" stroke-width="1.51"/><path d="M1505,998L1392,1087L1586,1131Z" fill="#1f8540" stroke="#1f8540" stroke-width="1.51"/><path d="M1253,1284L1223,1290L1461,1333Z" fill="#1f783b" stroke="#1f783b" stroke-width="1.51"/><path d="M1496,425L1440,562L1533,438Z" fill="#5aaf66" stroke="#5aaf66" stroke-width="1.51"/><path d="M1500,375L1496,425L1533,438Z" fill="#61b16a" stroke="#61b16a" stroke-width="1.51"/><path d="M1444,-161L1529,-107L1561,-164Z" fill="#91c496" stroke="#91c496" stroke-width="1.51"/><path d="M1392,1087L1461,1333L1561,1221Z" fill="#197939" stroke="#197939" stroke-width="1.51"/><path d="M1487,160L1348,376L1500,375Z" fill="#70ba77" stroke="#70ba77" stroke-width="1.51"/><path d="M1391,1058L1392,1087L1505,998Z" fill="#248a44" stroke="#248a44" stroke-width="1.51"/><path d="M1440,562L1451,726L1549,659Z" fill="#44a55a" stroke="#44a55a" stroke-width="1.51"/><path d="M1444,-161L1461,-32L1529,-107Z" fill="#90c595" stroke="#90c595" stroke-width="1.51"/><path d="M1392,1087L1332,1099L1461,1333Z" fill="#1e823e" stroke="#1e823e" stroke-width="1.51"/><path d="M1332,1099L1253,1284L1461,1333Z" fill="#1f7d3c" stroke="#1f7d3c" stroke-width="1.51"/><path d="M1259,232L1348,376L1487,160Z" fill="#78bf7f" stroke="#78bf7f" stroke-width="1.51"/><path d="M1358,517L1440,562L1496,425Z" fill="#59b066" stroke="#59b066" stroke-width="1.51"/><path d="M1369,404L1358,517L1496,425Z" fill="#61b56c" stroke="#61b56c" stroke-width="1.51"/><path d="M1348,376L1369,404L1500,375Z" fill="#68b871" stroke="#68b871" stroke-width="1.51"/><path d="M1397,902L1391,1058L1505,998Z" fill="#278f48" stroke="#278f48" stroke-width="1.51"/><path d="M1369,404L1496,425L1500,375Z" fill="#64b46e" stroke="#64b46e" stroke-width="1.51"/><path d="M1434,45L1259,232L1487,160Z" fill="#82c287" stroke="#82c287" stroke-width="1.51"/><path d="M1265,21L1212,113L1434,45Z" fill="#8cca92" stroke="#8cca92" stroke-width="1.51"/><path d="M1212,113L1259,232L1434,45Z" fill="#87c88c" stroke="#87c88c" stroke-width="1.51"/><path d="M1358,517L1279,717L1440,562Z" fill="#50af62" stroke="#50af62" stroke-width="1.51"/><path d="M1314,875L1397,902L1451,726Z" fill="#349d52" stroke="#349d52" stroke-width="1.51"/><path d="M1279,717L1314,875L1451,726Z" fill="#3ba457" stroke="#3ba457" stroke-width="1.51"/><path d="M1440,562L1279,717L1451,726Z" fill="#46a95c" stroke="#46a95c" stroke-width="1.51"/><path d="M1265,21L1434,45L1461,-32Z" fill="#8cc791" stroke="#8cc791" stroke-width="1.51"/><path d="M1444,-161L1232,-116L1461,-32Z" fill="#94cb9a" stroke="#94cb9a" stroke-width="1.51"/><path d="M1232,-116L1265,21L1461,-32Z" fill="#93cd99" stroke="#93cd99" stroke-width="1.51"/><path d="M1361,-223L1232,-116L1444,-161Z" fill="#99cd9e" stroke="#99cd9e" stroke-width="1.51"/><path d="M362,-251L627,-189L1005,-269Z" fill="#caeac5" stroke="#caeac5" stroke-width="1.51"/><path d="M933,1220L703,1266L1080,1248Z" fill="#448f4f" stroke="#448f4f" stroke-width="1.51"/><path d="M1231,543L1279,717L1358,517Z" fill="#54b365" stroke="#54b365" stroke-width="1.51"/><path d="M1230,1077L1332,1099L1391,1058Z" fill="#278e46" stroke="#278e46" stroke-width="1.51"/><path d="M1314,875L1230,1077L1391,1058Z" fill="#2c944b" stroke="#2c944b" stroke-width="1.51"/><path d="M1314,875L1391,1058L1397,902Z" fill="#2d954d" stroke="#2d954d" stroke-width="1.51"/><path d="M1391,1058L1332,1099L1392,1087Z" fill="#258b44" stroke="#258b44" stroke-width="1.51"/><path d="M1184,1044L1230,1077L1314,875Z" fill="#31984e" stroke="#31984e" stroke-width="1.51"/><path d="M1259,232L1216,284L1348,376Z" fill="#78c37e" stroke="#78c37e" stroke-width="1.51"/><path d="M1219,475L1358,517L1369,404Z" fill="#63b86e" stroke="#63b86e" stroke-width="1.51"/><path d="M1348,376L1219,475L1369,404Z" fill="#68bb72" stroke="#68bb72" stroke-width="1.51"/><path d="M1231,543L1193,577L1279,717Z" fill="#55b466" stroke="#55b466" stroke-width="1.51"/><path d="M1230,1077L1253,1284L1332,1099Z" fill="#258a43" stroke="#258a43" stroke-width="1.51"/><path d="M1135,-227L1232,-116L1361,-223Z" fill="#9fd4a4" stroke="#9fd4a4" stroke-width="1.51"/><path d="M1219,475L1231,543L1358,517Z" fill="#5fb86c" stroke="#5fb86c" stroke-width="1.51"/><path d="M1230,1077L1149,1208L1253,1284Z" fill="#2b8944" stroke="#2b8944" stroke-width="1.51"/><path d="M1216,284L1219,475L1348,376Z" fill="#70c078" stroke="#70c078" stroke-width="1.51"/><path d="M1232,-116L1205,-10L1265,21Z" fill="#98d09c" stroke="#98d09c" stroke-width="1.51"/><path d="M1279,717L1132,783L1314,875Z" fill="#40a85b" stroke="#40a85b" stroke-width="1.51"/><path d="M1132,783L1130,837L1314,875Z" fill="#41a75a" stroke="#41a75a" stroke-width="1.51"/><path d="M1130,837L1184,1044L1314,875Z" fill="#3a9f54" stroke="#3a9f54" stroke-width="1.51"/><path d="M1149,1208L1223,1290L1253,1284Z" fill="#298241" stroke="#298241" stroke-width="1.51"/><path d="M1193,577L1132,783L1279,717Z" fill="#4eb062" stroke="#4eb062" stroke-width="1.51"/><path d="M1216,284L1082,279L1219,475Z" fill="#7ac67e" stroke="#7ac67e" stroke-width="1.51"/><path d="M1212,113L1108,261L1259,232Z" fill="#87cb8b" stroke="#87cb8b" stroke-width="1.51"/><path d="M1205,-10L1212,113L1265,21Z" fill="#92cf96" stroke="#92cf96" stroke-width="1.51"/><path d="M1108,261L1216,284L1259,232Z" fill="#81c886" stroke="#81c886" stroke-width="1.51"/><path d="M627,-189L773,-186L1005,-269Z" fill="#c0e5bb" stroke="#c0e5bb" stroke-width="1.51"/><path d="M1022,646L1132,783L1193,577Z" fill="#58b567" stroke="#58b567" stroke-width="1.51"/><path d="M1205,-10L1056,40L1212,113Z" fill="#97d199" stroke="#97d199" stroke-width="1.51"/><path d="M1108,261L1082,279L1216,284Z" fill="#84ca86" stroke="#84ca86" stroke-width="1.51"/><path d="M1184,1044L1149,1208L1230,1077Z" fill="#319149" stroke="#319149" stroke-width="1.51"/><path d="M1219,475L1193,577L1231,543Z" fill="#61ba6c" stroke="#61ba6c" stroke-width="1.51"/><path d="M1036,-118L1205,-10L1232,-116Z" fill="#a0d5a2" stroke="#a0d5a2" stroke-width="1.51"/><path d="M1135,-227L1036,-118L1232,-116Z" fill="#a6d7a7" stroke="#a6d7a7" stroke-width="1.51"/><path d="M1130,837L1019,1013L1184,1044Z" fill="#40a056" stroke="#40a056" stroke-width="1.51"/><path d="M1082,279L1007,528L1219,475Z" fill="#76c47a" stroke="#76c47a" stroke-width="1.51"/><path d="M1149,1208L1080,1248L1223,1290Z" fill="#2f8543" stroke="#2f8543" stroke-width="1.51"/><path d="M1007,528L1193,577L1219,475Z" fill="#67bd6f" stroke="#67bd6f" stroke-width="1.51"/><path d="M1056,40L1108,261L1212,113Z" fill="#92d093" stroke="#92d093" stroke-width="1.51"/><path d="M995,940L1019,1013L1130,837Z" fill="#48a55b" stroke="#48a55b" stroke-width="1.51"/><path d="M1056,40L1010,223L1108,261Z" fill="#94d193" stroke="#94d193" stroke-width="1.51"/><path d="M1036,-118L1056,40L1205,-10Z" fill="#a1d6a1" stroke="#a1d6a1" stroke-width="1.51"/><path d="M974,1090L1149,1208L1184,1044Z" fill="#38944c" stroke="#38944c" stroke-width="1.51"/><path d="M1019,1013L974,1090L1184,1044Z" fill="#409b52" stroke="#409b52" stroke-width="1.51"/><path d="M1007,528L1022,646L1193,577Z" fill="#66bd6f" stroke="#66bd6f" stroke-width="1.51"/><path d="M947,484L1007,528L1082,279Z" fill="#7dc87e" stroke="#7dc87e" stroke-width="1.51"/><path d="M1022,646L1040,794L1132,783Z" fill="#53b365" stroke="#53b365" stroke-width="1.51"/><path d="M974,1090L1080,1248L1149,1208Z" fill="#398f4a" stroke="#398f4a" stroke-width="1.51"/><path d="M1040,794L995,940L1130,837Z" fill="#4caa5e" stroke="#4caa5e" stroke-width="1.51"/><path d="M1040,794L1130,837L1132,783Z" fill="#4cac60" stroke="#4cac60" stroke-width="1.51"/><path d="M1005,-269L1036,-118L1135,-227Z" fill="#addbad" stroke="#addbad" stroke-width="1.51"/><path d="M930,286L947,484L1082,279Z" fill="#87cd86" stroke="#87cd86" stroke-width="1.51"/><path d="M974,1090L933,1220L1080,1248Z" fill="#3e924d" stroke="#3e924d" stroke-width="1.51"/><path d="M1010,223L1082,279L1108,261Z" fill="#8bce8b" stroke="#8bce8b" stroke-width="1.51"/><path d="M942,860L995,940L1040,794Z" fill="#51ac60" stroke="#51ac60" stroke-width="1.51"/><path d="M897,127L1010,223L1056,40Z" fill="#9dd69a" stroke="#9dd69a" stroke-width="1.51"/><path d="M1010,223L930,286L1082,279Z" fill="#8fd08d" stroke="#8fd08d" stroke-width="1.51"/><path d="M1005,-269L913,-128L1036,-118Z" fill="#b1deaf" stroke="#b1deaf" stroke-width="1.51"/><path d="M1022,646L916,752L1040,794Z" fill="#5bb668" stroke="#5bb668" stroke-width="1.51"/><path d="M1036,-118L913,-128L1056,40Z" fill="#abdba9" stroke="#abdba9" stroke-width="1.51"/><path d="M913,-128L897,127L1056,40Z" fill="#a8daa4" stroke="#a8daa4" stroke-width="1.51"/><path d="M1007,528L911,567L1022,646Z" fill="#6ec072" stroke="#6ec072" stroke-width="1.51"/><path d="M916,752L942,860L1040,794Z" fill="#58b265" stroke="#58b265" stroke-width="1.51"/><path d="M897,127L888,156L1010,223Z" fill="#9dd699" stroke="#9dd699" stroke-width="1.51"/><path d="M793,77L897,127L913,-128Z" fill="#addda9" stroke="#addda9" stroke-width="1.51"/><path d="M911,567L916,752L1022,646Z" fill="#67bd6f" stroke="#67bd6f" stroke-width="1.51"/><path d="M995,940L864,1063L1019,1013Z" fill="#4ba359" stroke="#4ba359" stroke-width="1.51"/><path d="M864,1063L974,1090L1019,1013Z" fill="#499f56" stroke="#499f56" stroke-width="1.51"/><path d="M873,1140L933,1220L974,1090Z" fill="#469852" stroke="#469852" stroke-width="1.51"/><path d="M856,-156L913,-128L1005,-269Z" fill="#b5e0b2" stroke="#b5e0b2" stroke-width="1.51"/><path d="M888,156L930,286L1010,223Z" fill="#98d494" stroke="#98d494" stroke-width="1.51"/><path d="M773,-186L856,-156L1005,-269Z" fill="#bae2b6" stroke="#bae2b6" stroke-width="1.51"/><path d="M947,484L911,567L1007,528Z" fill="#76c577" stroke="#76c577" stroke-width="1.51"/><path d="M930,286L786,336L947,484Z" fill="#8dd08a" stroke="#8dd08a" stroke-width="1.51"/><path d="M942,860L864,1063L995,940Z" fill="#50a85e" stroke="#50a85e" stroke-width="1.51"/><path d="M770,1014L864,1063L942,860Z" fill="#55a861" stroke="#55a861" stroke-width="1.51"/><path d="M864,1063L873,1140L974,1090Z" fill="#4b9d56" stroke="#4b9d56" stroke-width="1.51"/><path d="M856,-156L723,-73L913,-128Z" fill="#bae2b5" stroke="#bae2b5" stroke-width="1.51"/><path d="M723,-73L793,77L913,-128Z" fill="#b7e1b2" stroke="#b7e1b2" stroke-width="1.51"/><path d="M911,567L748,696L916,752Z" fill="#6cc074" stroke="#6cc074" stroke-width="1.51"/><path d="M701,903L770,1014L942,860Z" fill="#5cae67" stroke="#5cae67" stroke-width="1.51"/><path d="M691,437L911,567L947,484Z" fill="#82cb80" stroke="#82cb80" stroke-width="1.51"/><path d="M786,336L691,437L947,484Z" fill="#8dd08a" stroke="#8dd08a" stroke-width="1.51"/><path d="M916,752L686,837L942,860Z" fill="#60b56c" stroke="#60b56c" stroke-width="1.51"/><path d="M686,837L701,903L942,860Z" fill="#63b46c" stroke="#63b46c" stroke-width="1.51"/><path d="M888,156L786,336L930,286Z" fill="#99d595" stroke="#99d595" stroke-width="1.51"/><path d="M873,1140L703,1266L933,1220Z" fill="#4b9554" stroke="#4b9554" stroke-width="1.51"/><path d="M722,186L786,336L888,156Z" fill="#a1d99c" stroke="#a1d99c" stroke-width="1.51"/><path d="M691,437L678,541L911,567Z" fill="#86cd84" stroke="#86cd84" stroke-width="1.51"/><path d="M710,643L748,696L911,567Z" fill="#76c47a" stroke="#76c47a" stroke-width="1.51"/><path d="M748,696L686,837L916,752Z" fill="#69bc73" stroke="#69bc73" stroke-width="1.51"/><path d="M678,541L710,643L911,567Z" fill="#7ec87f" stroke="#7ec87f" stroke-width="1.51"/><path d="M793,77L888,156L897,127Z" fill="#a7dba2" stroke="#a7dba2" stroke-width="1.51"/><path d="M793,77L722,186L888,156Z" fill="#a9dca4" stroke="#a9dca4" stroke-width="1.51"/><path d="M864,1063L734,1099L873,1140Z" fill="#51a05b" stroke="#51a05b" stroke-width="1.51"/><path d="M734,1099L703,1266L873,1140Z" fill="#529c5a" stroke="#529c5a" stroke-width="1.51"/><path d="M773,-186L723,-73L856,-156Z" fill="#bde4b8" stroke="#bde4b8" stroke-width="1.51"/><path d="M770,1014L734,1099L864,1063Z" fill="#56a460" stroke="#56a460" stroke-width="1.51"/><path d="M663,1251L524,1271L703,1266Z" fill="#58955d" stroke="#58955d" stroke-width="1.51"/><path d="M663,1197L703,1266L734,1099Z" fill="#579c5d" stroke="#579c5d" stroke-width="1.51"/><path d="M722,186L597,318L786,336Z" fill="#a3da9d" stroke="#a3da9d" stroke-width="1.51"/><path d="M723,-73L668,-10L793,77Z" fill="#b9e3b4" stroke="#b9e3b4" stroke-width="1.51"/><path d="M668,-10L722,186L793,77Z" fill="#b3e0ad" stroke="#b3e0ad" stroke-width="1.51"/><path d="M701,903L682,1015L770,1014Z" fill="#60ad69" stroke="#60ad69" stroke-width="1.51"/><path d="M597,318L691,437L786,336Z" fill="#9bd696" stroke="#9bd696" stroke-width="1.51"/><path d="M682,1015L734,1099L770,1014Z" fill="#5ca764" stroke="#5ca764" stroke-width="1.51"/><path d="M627,-189L723,-73L773,-186Z" fill="#c4e7be" stroke="#c4e7be" stroke-width="1.51"/><path d="M668,-10L590,17L722,186Z" fill="#b9e3b3" stroke="#b9e3b3" stroke-width="1.51"/><path d="M710,643L572,686L748,696Z" fill="#7ac67e" stroke="#7ac67e" stroke-width="1.51"/><path d="M572,686L686,837L748,696Z" fill="#73c27b" stroke="#73c27b" stroke-width="1.51"/><path d="M663,1197L663,1251L703,1266Z" fill="#56975c" stroke="#56975c" stroke-width="1.51"/><path d="M559,228L597,318L722,186Z" fill="#acdea5" stroke="#acdea5" stroke-width="1.51"/><path d="M590,17L559,228L722,186Z" fill="#b5e2ae" stroke="#b5e2ae" stroke-width="1.51"/><path d="M682,1015L663,1197L734,1099Z" fill="#5ba462" stroke="#5ba462" stroke-width="1.51"/><path d="M572,686L544,785L686,837Z" fill="#76c27d" stroke="#76c27d" stroke-width="1.51"/><path d="M627,-189L668,-10L723,-73Z" fill="#c3e7bd" stroke="#c3e7bd" stroke-width="1.51"/><path d="M600,443L678,541L691,437Z" fill="#92d28e" stroke="#92d28e" stroke-width="1.51"/><path d="M597,318L600,443L691,437Z" fill="#9cd797" stroke="#9cd797" stroke-width="1.51"/><path d="M678,541L554,596L710,643Z" fill="#86cb85" stroke="#86cb85" stroke-width="1.51"/><path d="M554,596L572,686L710,643Z" fill="#83c984" stroke="#83c984" stroke-width="1.51"/><path d="M443,1079L663,1197L682,1015Z" fill="#63a768" stroke="#63a768" stroke-width="1.51"/><path d="M494,888L682,1015L701,903Z" fill="#6ab471" stroke="#6ab471" stroke-width="1.51"/><path d="M627,-189L590,17L668,-10Z" fill="#c5e8be" stroke="#c5e8be" stroke-width="1.51"/><path d="M686,837L494,888L701,903Z" fill="#6eb875" stroke="#6eb875" stroke-width="1.51"/><path d="M443,1079L449,1157L663,1197Z" fill="#65a56a" stroke="#65a56a" stroke-width="1.51"/><path d="M544,785L494,888L686,837Z" fill="#73bc7b" stroke="#73bc7b" stroke-width="1.51"/><path d="M461,-106L590,17L627,-189Z" fill="#caeac5" stroke="#caeac5" stroke-width="1.51"/><path d="M494,888L443,1079L682,1015Z" fill="#6cb172" stroke="#6cb172" stroke-width="1.51"/><path d="M482,65L559,228L590,17Z" fill="#bee5b7" stroke="#bee5b7" stroke-width="1.51"/><path d="M600,443L554,596L678,541Z" fill="#8fd08c" stroke="#8fd08c" stroke-width="1.51"/><path d="M362,-251L443,-161L627,-189Z" fill="#d5eecf" stroke="#d5eecf" stroke-width="1.51"/><path d="M524,1271L663,1251L663,1197Z" fill="#5a985f" stroke="#5a985f" stroke-width="1.51"/><path d="M449,1157L524,1271L663,1197Z" fill="#609e65" stroke="#609e65" stroke-width="1.51"/><path d="M410,980L443,1079L494,888Z" fill="#73b478" stroke="#73b478" stroke-width="1.51"/><path d="M597,318L509,441L600,443Z" fill="#a0d89a" stroke="#a0d89a" stroke-width="1.51"/><path d="M509,441L554,596L600,443Z" fill="#97d492" stroke="#97d492" stroke-width="1.51"/><path d="M443,-161L461,-106L627,-189Z" fill="#d0edcb" stroke="#d0edcb" stroke-width="1.51"/><path d="M482,65L437,175L559,228Z" fill="#bde5b5" stroke="#bde5b5" stroke-width="1.51"/><path d="M432,324L509,441L597,318Z" fill="#a8dca1" stroke="#a8dca1" stroke-width="1.51"/><path d="M461,-106L482,65L590,17Z" fill="#c8eac2" stroke="#c8eac2" stroke-width="1.51"/><path d="M559,228L432,324L597,318Z" fill="#aedfa7" stroke="#aedfa7" stroke-width="1.51"/><path d="M-95,-228L109,-178L362,-251Z" fill="#e8f6e4" stroke="#e8f6e4" stroke-width="1.51"/><path d="M281,697L544,785L572,686Z" fill="#83c888" stroke="#83c888" stroke-width="1.51"/><path d="M320,587L281,697L572,686Z" fill="#8fcf90" stroke="#8fcf90" stroke-width="1.51"/><path d="M554,596L320,587L572,686Z" fill="#8dce8e" stroke="#8dce8e" stroke-width="1.51"/><path d="M281,697L286,756L544,785Z" fill="#87c98d" stroke="#87c98d" stroke-width="1.51"/><path d="M509,441L320,587L554,596Z" fill="#98d494" stroke="#98d494" stroke-width="1.51"/><path d="M437,175L432,324L559,228Z" fill="#b6e2ae" stroke="#b6e2ae" stroke-width="1.51"/><path d="M320,874L494,888L544,785Z" fill="#7bbf81" stroke="#7bbf81" stroke-width="1.51"/><path d="M286,756L320,874L544,785Z" fill="#82c487" stroke="#82c487" stroke-width="1.51"/><path d="M461,-106L334,-38L482,65Z" fill="#cfecc8" stroke="#cfecc8" stroke-width="1.51"/><path d="M361,415L320,587L509,441Z" fill="#a2d99e" stroke="#a2d99e" stroke-width="1.51"/><path d="M449,1157L346,1209L524,1271Z" fill="#67a06a" stroke="#67a06a" stroke-width="1.51"/><path d="M346,1209L293,1285L524,1271Z" fill="#689d6b" stroke="#689d6b" stroke-width="1.51"/><path d="M394,91L437,175L482,65Z" fill="#c4e8bd" stroke="#c4e8bd" stroke-width="1.51"/><path d="M432,324L361,415L509,441Z" fill="#a9dca3" stroke="#a9dca3" stroke-width="1.51"/><path d="M334,-38L394,91L482,65Z" fill="#cbebc4" stroke="#cbebc4" stroke-width="1.51"/><path d="M320,874L410,980L494,888Z" fill="#79bb7f" stroke="#79bb7f" stroke-width="1.51"/><path d="M351,371L361,415L432,324Z" fill="#afdfa8" stroke="#afdfa8" stroke-width="1.51"/><path d="M285,242L432,324L437,175Z" fill="#bbe4b3" stroke="#bbe4b3" stroke-width="1.51"/><path d="M443,-161L334,-38L461,-106Z" fill="#d4eece" stroke="#d4eece" stroke-width="1.51"/><path d="M443,1079L346,1209L449,1157Z" fill="#6ca870" stroke="#6ca870" stroke-width="1.51"/><path d="M362,-251L239,-173L443,-161Z" fill="#dcf1d6" stroke="#dcf1d6" stroke-width="1.51"/><path d="M239,-173L334,-38L443,-161Z" fill="#d9f1d3" stroke="#d9f1d3" stroke-width="1.51"/><path d="M410,980L235,1043L443,1079Z" fill="#75b27a" stroke="#75b27a" stroke-width="1.51"/><path d="M235,1043L346,1209L443,1079Z" fill="#72ac76" stroke="#72ac76" stroke-width="1.51"/><path d="M285,242L351,371L432,324Z" fill="#b7e2b0" stroke="#b7e2b0" stroke-width="1.51"/><path d="M394,91L285,242L437,175Z" fill="#c3e7bc" stroke="#c3e7bc" stroke-width="1.51"/><path d="M109,-178L239,-173L362,-251Z" fill="#e2f4dd" stroke="#e2f4dd" stroke-width="1.51"/><path d="M320,874L235,1043L410,980Z" fill="#7bb980" stroke="#7bb980" stroke-width="1.51"/><path d="M334,-38L216,92L394,91Z" fill="#d0edc9" stroke="#d0edc9" stroke-width="1.51"/><path d="M216,92L285,242L394,91Z" fill="#c9eac2" stroke="#c9eac2" stroke-width="1.51"/><path d="M206,891L235,1043L320,874Z" fill="#81bc86" stroke="#81bc86" stroke-width="1.51"/><path d="M235,1043L177,1108L346,1209Z" fill="#76ae79" stroke="#76ae79" stroke-width="1.51"/><path d="M177,1108L193,1216L346,1209Z" fill="#74a977" stroke="#74a977" stroke-width="1.51"/><path d="M192,512L320,587L361,415Z" fill="#a5daa1" stroke="#a5daa1" stroke-width="1.51"/><path d="M351,371L146,411L361,415Z" fill="#b1e0ab" stroke="#b1e0ab" stroke-width="1.51"/><path d="M146,411L192,512L361,415Z" fill="#afdeaa" stroke="#afdeaa" stroke-width="1.51"/><path d="M239,-173L190,-77L334,-38Z" fill="#ddf2d6" stroke="#ddf2d6" stroke-width="1.51"/><path d="M166,352L146,411L351,371Z" fill="#b6e2b1" stroke="#b6e2b1" stroke-width="1.51"/><path d="M285,242L166,352L351,371Z" fill="#bae3b3" stroke="#bae3b3" stroke-width="1.51"/><path d="M193,1216L293,1285L346,1209Z" fill="#6fa172" stroke="#6fa172" stroke-width="1.51"/><path d="M-95,1229L-236,1228L111,1308Z" fill="#7da580" stroke="#7da580" stroke-width="1.51"/><path d="M214,619L281,697L320,587Z" fill="#99d298" stroke="#99d298" stroke-width="1.51"/><path d="M286,756L206,891L320,874Z" fill="#86c48b" stroke="#86c48b" stroke-width="1.51"/><path d="M190,-77L216,92L334,-38Z" fill="#d7efd0" stroke="#d7efd0" stroke-width="1.51"/><path d="M216,92L165,141L285,242Z" fill="#ccebc5" stroke="#ccebc5" stroke-width="1.51"/><path d="M192,512L214,619L320,587Z" fill="#a1d79e" stroke="#a1d79e" stroke-width="1.51"/><path d="M111,758L206,891L286,756Z" fill="#8cc992" stroke="#8cc992" stroke-width="1.51"/><path d="M193,1216L111,1308L293,1285Z" fill="#719f74" stroke="#719f74" stroke-width="1.51"/><path d="M281,697L111,758L286,756Z" fill="#90cd94" stroke="#90cd94" stroke-width="1.51"/><path d="M165,141L166,352L285,242Z" fill="#c5e8bd" stroke="#c5e8bd" stroke-width="1.51"/><path d="M214,619L111,758L281,697Z" fill="#96d099" stroke="#96d099" stroke-width="1.51"/><path d="M165,141L55,244L166,352Z" fill="#c8e9c2" stroke="#c8e9c2" stroke-width="1.51"/><path d="M190,-77L26,38L216,92Z" fill="#daf1d4" stroke="#daf1d4" stroke-width="1.51"/><path d="M206,891L137,1034L235,1043Z" fill="#81b985" stroke="#81b985" stroke-width="1.51"/><path d="M109,-178L190,-77L239,-173Z" fill="#e2f4dd" stroke="#e2f4dd" stroke-width="1.51"/><path d="M137,1034L177,1108L235,1043Z" fill="#7db481" stroke="#7db481" stroke-width="1.51"/><path d="M48,-75L26,38L190,-77Z" fill="#e1f3dc" stroke="#e1f3dc" stroke-width="1.51"/><path d="M111,758L56,846L206,891Z" fill="#8ec893" stroke="#8ec893" stroke-width="1.51"/><path d="M192,512L46,621L214,619Z" fill="#a4d8a2" stroke="#a4d8a2" stroke-width="1.51"/><path d="M46,621L111,758L214,619Z" fill="#9dd39e" stroke="#9dd39e" stroke-width="1.51"/><path d="M26,38L165,141L216,92Z" fill="#d5efcf" stroke="#d5efcf" stroke-width="1.51"/><path d="M56,846L137,1034L206,891Z" fill="#88c08d" stroke="#88c08d" stroke-width="1.51"/><path d="M55,244L54,325L166,352Z" fill="#c4e7be" stroke="#c4e7be" stroke-width="1.51"/><path d="M109,-178L48,-75L190,-77Z" fill="#e4f4de" stroke="#e4f4de" stroke-width="1.51"/><path d="M146,411L12,472L192,512Z" fill="#b2dfae" stroke="#b2dfae" stroke-width="1.51"/><path d="M12,472L46,621L192,512Z" fill="#addda9" stroke="#addda9" stroke-width="1.51"/><path d="M177,1108L74,1096L193,1216Z" fill="#7aae7d" stroke="#7aae7d" stroke-width="1.51"/><path d="M74,1096L111,1308L193,1216Z" fill="#78a87b" stroke="#78a87b" stroke-width="1.51"/><path d="M137,1034L74,1096L177,1108Z" fill="#7fb482" stroke="#7fb482" stroke-width="1.51"/><path d="M54,325L146,411L166,352Z" fill="#bde4b7" stroke="#bde4b7" stroke-width="1.51"/><path d="M56,846L-50,1006L137,1034Z" fill="#8abe8f" stroke="#8abe8f" stroke-width="1.51"/><path d="M26,38L55,244L165,141Z" fill="#d4efcd" stroke="#d4efcd" stroke-width="1.51"/><path d="M74,1096L-3,1105L111,1308Z" fill="#7dad80" stroke="#7dad80" stroke-width="1.51"/><path d="M-3,1105L-95,1229L111,1308Z" fill="#7da97f" stroke="#7da97f" stroke-width="1.51"/><path d="M54,325L12,472L146,411Z" fill="#bce3b6" stroke="#bce3b6" stroke-width="1.51"/><path d="M12,472L-1,597L46,621Z" fill="#addcaa" stroke="#addcaa" stroke-width="1.51"/><path d="M-50,1006L74,1096L137,1034Z" fill="#85b888" stroke="#85b888" stroke-width="1.51"/><path d="M-106,692L56,846L111,758Z" fill="#98cf9c" stroke="#98cf9c" stroke-width="1.51"/><path d="M46,621L-106,692L111,758Z" fill="#9fd4a1" stroke="#9fd4a1" stroke-width="1.51"/><path d="M26,38L-108,184L55,244Z" fill="#d6efd0" stroke="#d6efd0" stroke-width="1.51"/><path d="M-95,-228L48,-75L109,-178Z" fill="#eaf7e6" stroke="#eaf7e6" stroke-width="1.51"/><path d="M-95,-228L-77,-57L48,-75Z" fill="#eaf7e6" stroke="#eaf7e6" stroke-width="1.51"/><path d="M-62,379L12,472L54,325Z" fill="#bfe5ba" stroke="#bfe5ba" stroke-width="1.51"/><path d="M-97,853L-50,1006L56,846Z" fill="#90c495" stroke="#90c495" stroke-width="1.51"/><path d="M-106,692L-97,853L56,846Z" fill="#97cd9d" stroke="#97cd9d" stroke-width="1.51"/><path d="M-50,1006L-3,1105L74,1096Z" fill="#84b689" stroke="#84b689" stroke-width="1.51"/><path d="M-105,37L-108,184L26,38Z" fill="#ddf2d8" stroke="#ddf2d8" stroke-width="1.51"/><path d="M-1,597L-106,692L46,621Z" fill="#a6d8a6" stroke="#a6d8a6" stroke-width="1.51"/><path d="M-77,-57L26,38L48,-75Z" fill="#e4f5de" stroke="#e4f5de" stroke-width="1.51"/><path d="M-62,379L54,325L55,244Z" fill="#c6e9c0" stroke="#c6e9c0" stroke-width="1.51"/><path d="M-108,184L-62,379L55,244Z" fill="#ccebc6" stroke="#ccebc6" stroke-width="1.51"/><path d="M-106,692L-143,780L-97,853Z" fill="#9bd0a0" stroke="#9bd0a0" stroke-width="1.51"/><path d="M-108,184L-160,282L-62,379Z" fill="#cdebc8" stroke="#cdebc8" stroke-width="1.51"/><path d="M-77,-57L-105,37L26,38Z" fill="#e3f4dd" stroke="#e3f4dd" stroke-width="1.51"/><path d="M-136,407L-224,624L-1,597Z" fill="#b3dfb0" stroke="#b3dfb0" stroke-width="1.51"/><path d="M-136,407L-1,597L12,472Z" fill="#b6e0b2" stroke="#b6e0b2" stroke-width="1.51"/><path d="M-62,379L-136,407L12,472Z" fill="#bee5b9" stroke="#bee5b9" stroke-width="1.51"/><path d="M-50,1006L-160,1065L-3,1105Z" fill="#87b88c" stroke="#87b88c" stroke-width="1.51"/><path d="M-160,1065L-95,1229L-3,1105Z" fill="#84b287" stroke="#84b287" stroke-width="1.51"/><path d="M-224,624L-106,692L-1,597Z" fill="#a8d9a9" stroke="#a8d9a9" stroke-width="1.51"/><path d="M-197,110L-108,184L-105,37Z" fill="#def2d8" stroke="#def2d8" stroke-width="1.51"/><path d="M-95,-228L-164,-77L-77,-57Z" fill="#edf8e8" stroke="#edf8e8" stroke-width="1.51"/><path d="M-160,282L-136,407L-62,379Z" fill="#c7e8c2" stroke="#c7e8c2" stroke-width="1.51"/><path d="M-97,853L-195,865L-50,1006Z" fill="#92c597" stroke="#92c597" stroke-width="1.51"/><path d="M-195,865L-160,1065L-50,1006Z" fill="#8ebf94" stroke="#8ebf94" stroke-width="1.51"/><path d="M-252,1207L-236,1228L-160,1065Z" fill="#86b189" stroke="#86b189" stroke-width="1.51"/><path d="M-160,1065L-236,1228L-95,1229Z" fill="#84af87" stroke="#84af87" stroke-width="1.51"/><path d="M-164,-77L-105,37L-77,-57Z" fill="#e8f6e2" stroke="#e8f6e2" stroke-width="1.51"/><path d="M-192,209L-160,282L-108,184Z" fill="#d4eece" stroke="#d4eece" stroke-width="1.51"/><path d="M-143,780L-195,865L-97,853Z" fill="#98cb9d" stroke="#98cb9d" stroke-width="1.51"/><path d="M-254,-251L-164,-77L-95,-228Z" fill="#f1faed" stroke="#f1faed" stroke-width="1.51"/><path d="M-197,110L-192,209L-108,184Z" fill="#daf0d4" stroke="#daf0d4" stroke-width="1.51"/><path d="M-224,624L-143,780L-106,692Z" fill="#a3d5a6" stroke="#a3d5a6" stroke-width="1.51"/><path d="M-164,-77L-197,110L-105,37Z" fill="#e5f5e0" stroke="#e5f5e0" stroke-width="1.51"/><path d="M-160,282L-224,624L-136,407Z" fill="#bfe5bb" stroke="#bfe5bb" stroke-width="1.51"/><path d="M-192,209L-224,624L-160,282Z" fill="#c7e8c2" stroke="#c7e8c2" stroke-width="1.51"/><path d="M-224,624L-195,865L-143,780Z" fill="#9ed2a4" stroke="#9ed2a4" stroke-width="1.51"/><path d="M-195,865L-252,1207L-160,1065Z" fill="#8cbb91" stroke="#8cbb91" stroke-width="1.51"/><path d="M-254,-251L-197,110L-164,-77Z" fill="#edf8e9" stroke="#edf8e9" stroke-width="1.51"/><path d="M-254,-251L-224,624L-197,110Z" fill="#dcf1d7" stroke="#dcf1d7" stroke-width="1.51"/><path d="M-197,110L-224,624L-192,209Z" fill="#cdebc8" stroke="#cdebc8" stroke-width="1.51"/><path d="M-224,624L-252,1207L-195,865Z" fill="#96c79c" stroke="#96c79c" stroke-width="1.51"/><path d="M-254,-251L-252,1207L-224,624Z" fill="#b8e1b5" stroke="#b8e1b5" stroke-width="1.51"/></svg>